<svg width="110" height="125" viewBox="0 0 110 125" fill="none" xmlns="http://www.w3.org/2000/svg">
<mask id="mask0_5_187" style="mask-type:luminance" maskUnits="userSpaceOnUse" x="0" y="0" width="110" height="125">
<path d="M0 0H109.333V125H0V0Z" fill="white"/>
</mask>
<g mask="url(#mask0_5_187)">
<path fill-rule="evenodd" clip-rule="evenodd" d="M54.3906 2.10938L66.4375 22.9688L54.3906 29.9219L42.3438 22.9688L54.3906 2.10938ZM66.4375 102.031L54.3906 122.891L42.3438 102.031L54.3906 95.0781L66.4375 102.031ZM67.875 101.641L54.3906 93.8594L40.9063 101.641L54.3906 125L67.875 101.641ZM77.3281 45.75V22.7656L57.4219 34.2656L59.5313 37.9063L73.1094 30.0625V45.75H77.3281ZM82.6094 46.2031V32.2969H106.688L94.6563 53.1563L82.6094 46.2031ZM81.5469 46.8125L95.0313 54.6094L108.516 31.25H81.5469V46.8125ZM80.3594 74L100.281 62.5L80.3594 51L78.25 54.6563L91.8438 62.5L78.25 70.3438L80.3594 74ZM81.5469 78.1875V93.75H108.516L95.0313 70.3906L81.5469 78.1875ZM82.6094 78.7969L94.6563 71.8438L106.688 92.7031H82.6094V78.7969ZM59.5313 87.0938L57.4219 90.7344L77.3281 102.234V79.25H73.1094V94.9375L59.5313 87.0938ZM35.6719 79.25H31.4531V102.234L51.3594 90.7344L49.25 87.0938L35.6719 94.9375V79.25ZM39.9219 62.5L32.6875 75.0313H47.1563L54.3906 87.5469L61.625 75.0313H76.0938L68.8594 62.5L76.0938 49.9688H61.625L54.3906 37.4531L47.1563 49.9688H32.6875L39.9219 62.5ZM40 70.8125L44.7969 62.5L40 54.1875H49.5938L54.3906 45.875L59.1875 54.1875H68.7813L63.9844 62.5L68.7813 70.8125H59.1875L54.3906 79.125L49.5938 70.8125H40ZM27.2344 78.1875L13.75 70.3906L0.265625 93.75H27.2344V78.1875ZM2.09375 92.7031L14.125 71.8438L26.1719 78.7969V92.7031H2.09375ZM28.4219 51L8.5 62.5L28.4219 74L30.5313 70.3438L16.9375 62.5L30.5313 54.6563L28.4219 51ZM31.4531 22.7656V45.75H35.6719V30.0625L49.25 37.9063L51.3594 34.2656L31.4531 22.7656ZM27.2344 31.25H0.265625L13.75 54.6094L27.2344 46.8125V31.25ZM2.09375 32.2969H26.1719V46.2031L14.125 53.1563L2.09375 32.2969ZM40.9063 23.3594L54.3906 31.1406L67.875 23.3594L54.3906 0L40.9063 23.3594Z" fill="#B5934C"/>
</g>
</svg>
