<svg width="109" height="110" viewBox="0 0 109 110" fill="none" xmlns="http://www.w3.org/2000/svg">
<path d="M51.1771 52.3281L48.3542 55.4271L51.1771 58.5313L53.9739 61.6563V57.9375L52.8437 56.6979L51.7187 55.4271L52.8437 54.1875L53.9739 52.9219V49.2292L51.1771 52.3281Z" fill="#E5D392"/>
<path d="M57.7656 52.3281L60.5625 55.4271L57.7656 58.5313L54.9427 61.6563V57.9375L56.0729 56.6979L57.1979 55.4271L56.0729 54.1875L54.9427 52.9219V49.2292L57.7656 52.3281Z" fill="#E5D392"/>
<path d="M38.8385 36.9115L52.875 48.474V42.1927L39.1927 28.5781L38.8385 36.9115Z" fill="#E5D392"/>
<path d="M39.4844 22.0833L39.2448 27.8542L52.875 41.4636V35.4271L39.4844 22.0833Z" fill="#E5D392"/>
<path d="M52.875 28.2292L39.8073 15.1302L39.5104 21.3542L52.875 34.6719V28.2292Z" fill="#E5D392"/>
<path d="M69.3229 37.3958L55.2917 48.9583V42.6771L68.9479 29.0677L69.3229 37.3958Z" fill="#E5D392"/>
<path d="M68.6771 22.5677L68.9219 28.3386L55.2917 41.9531V35.9115L68.6771 22.5677Z" fill="#E5D392"/>
<path d="M55.2917 28.7136L68.3542 15.6146L68.625 21.8438L55.2917 35.1563V28.7136Z" fill="#E5D392"/>
<path d="M36.3958 70.3385L47.9531 56.2656H41.6927L28.0885 69.9844L36.3958 70.3385Z" fill="#E5D392"/>
<path d="M21.6094 69.6875L27.3906 69.9583L40.9635 56.2656H34.9167L21.6094 69.6875Z" fill="#E5D392"/>
<path d="M27.7656 56.2656L14.7031 69.3646L20.9115 69.6615L34.1927 56.2656H27.7656Z" fill="#E5D392"/>
<path d="M36.8802 39.7656L48.4375 53.8385H42.1719L28.5729 40.1458L36.8802 39.7656Z" fill="#E5D392"/>
<path d="M22.0938 40.4167L27.875 40.1719L41.4479 53.8385H35.401L22.0938 40.4167Z" fill="#E5D392"/>
<path d="M28.25 53.8385L15.1875 40.7396L21.3958 40.4688L34.6719 53.8385H28.25Z" fill="#E5D392"/>
<path d="M72.6562 70.3385L61.0989 56.2656H67.3594L80.9635 69.9844L72.6562 70.3385Z" fill="#E5D392"/>
<path d="M87.4427 69.6875L81.6614 69.9583L68.1146 56.2656H74.1354L87.4427 69.6875Z" fill="#E5D392"/>
<path d="M81.3125 56.2656L94.375 69.3646L88.1406 69.6615L74.8594 56.2656H81.3125Z" fill="#E5D392"/>
<path d="M72.1719 39.7656L60.6146 53.8385H66.875L80.4791 40.1458L72.1719 39.7656Z" fill="#E5D392"/>
<path d="M86.9583 40.4167L81.1771 40.1719L67.6302 53.8385H73.651L86.9583 40.4167Z" fill="#E5D392"/>
<path d="M80.8281 53.8385L93.8906 40.7396L87.6563 40.4688L74.375 53.8385H80.8281Z" fill="#E5D392"/>
<path d="M38.8385 73.5156L52.875 61.9531V68.2344L39.1927 81.849L38.8385 73.5156Z" fill="#E5D392"/>
<path d="M39.4844 88.3438L39.2448 82.5729L52.875 68.9636V75L39.4844 88.3438Z" fill="#E5D392"/>
<path d="M52.875 82.198L39.8073 95.2969L39.5104 89.073L52.875 75.7552V82.198Z" fill="#E5D392"/>
<path d="M69.3229 73.0313L55.2917 61.4688V67.75L68.9479 81.3646L69.3229 73.0313Z" fill="#E5D392"/>
<path d="M68.6771 87.8594L68.9219 82.0886L55.2917 68.4792V74.5156L68.6771 87.8594Z" fill="#E5D392"/>
<path d="M55.2917 81.7136L68.3542 94.8125L68.625 88.5886L55.2917 75.2709V81.7136Z" fill="#E5D392"/>
<path d="M34.6719 36.0104L35.5104 35.1719L51.3594 51.0677L50.526 51.9063L34.6719 36.0104Z" fill="#E5D392"/>
<path d="M59.0208 51.4323L58.1823 50.5938L74.0364 34.6979L74.8698 35.5365L59.0208 51.4323Z" fill="#E5D392"/>
<path d="M48.9114 59.1979L49.7448 60.0365L33.8958 75.9323L33.0573 75.0938L48.9114 59.1979Z" fill="#E5D392"/>
<path d="M75.0313 74.4271L74.1927 75.2656L58.3438 59.3698L59.1771 58.5312L75.0313 74.4271Z" fill="#E5D392"/>
<path d="M50.776 16.5052L47.9531 19.6042L50.776 22.7292L53.5729 25.8333V22.1094L52.4427 20.8698L51.3125 19.6042L53.5729 17.125V13.4062L50.776 16.5052Z" fill="#E5D392"/>
<path d="M57.3333 16.5052L60.1562 19.6042L57.3333 22.7292L54.5364 25.8333V22.1094L55.6666 20.8698L56.7969 19.6042L54.5364 17.125V13.4062L57.3333 16.5052Z" fill="#E5D392"/>
<mask id="mask0_5_1067" style="mask-type:luminance" maskUnits="userSpaceOnUse" x="47" y="0" width="8" height="14">
<path d="M47.9323 0H54.5989V13.1823H47.9323V0Z" fill="white"/>
</mask>
<g mask="url(#mask0_5_1067)">
<path d="M50.776 3.10418L47.9531 6.20834L50.776 9.3073L53.5729 12.4063V8.71355L52.4427 7.47397L51.3125 6.20834L52.4427 4.96876L53.5729 3.69793V0.00521851L50.776 3.10418Z" fill="#E5D392"/>
</g>
<mask id="mask1_5_1067" style="mask-type:luminance" maskUnits="userSpaceOnUse" x="53" y="0" width="9" height="14">
<path d="M53.2656 0H61.2656V13.1823H53.2656V0Z" fill="white"/>
</mask>
<g mask="url(#mask1_5_1067)">
<path d="M57.3333 3.10418L60.1563 6.20834L57.3333 9.3073L54.5365 12.4063V8.71355L55.6667 7.47397L56.7969 6.20834L55.6667 4.96876L54.5365 3.69793V0.00521851L57.3333 3.10418Z" fill="#E5D392"/>
</g>
<path d="M66.6615 13.1615L63.8385 10.0625L61.1771 7.12502V6.93231L61.099 7.01565L61.0156 6.93231V7.12502L58.3542 10.0625L55.5312 13.1615L58.3542 16.2604L61.0156 19.1979V19.3906L61.099 19.3073L61.1771 19.3906V19.1979L63.8385 16.2604L66.6615 13.1615ZM62.1719 14.4271L61.125 15.5886L60.0781 14.4271L58.9479 13.1875L60.0781 11.9479L61.125 10.7865L62.1719 11.9479L63.3021 13.1875L62.1719 14.4271Z" fill="#E5D392"/>
<path d="M52.4948 13.1615L49.6719 10.0625L47.0416 7.15106V6.96356L46.9583 7.04169L46.8802 6.96356V7.15106L44.2187 10.0886L41.3958 13.1875L44.2187 16.2865L46.8802 19.224V19.4167L46.9583 19.3334L47.0416 19.4167V19.224L49.7031 16.2865L52.4948 13.1615ZM48.0052 14.4271L46.9583 15.5886L45.9114 14.4271L44.7812 13.1875L45.9114 11.9479L46.9583 10.7865L48.0052 11.9479L49.1354 13.1875L48.0052 14.4271Z" fill="#E5D392"/>
<mask id="mask2_5_1067" style="mask-type:luminance" maskUnits="userSpaceOnUse" x="47" y="97" width="8" height="13">
<path d="M47.9323 97.1823H54.5989V110H47.9323V97.1823Z" fill="white"/>
</mask>
<g mask="url(#mask2_5_1067)">
<path d="M51.2604 100.693L48.4375 103.792L51.2604 106.891L54.0573 109.99V106.297L52.9271 105.031L51.7969 103.792L52.9271 102.521L54.0573 101.281V97.5886L51.2604 100.693Z" fill="#E5D392"/>
</g>
<mask id="mask3_5_1067" style="mask-type:luminance" maskUnits="userSpaceOnUse" x="54" y="97" width="8" height="13">
<path d="M54.5989 97.1823H61.2656V110H54.5989V97.1823Z" fill="white"/>
</mask>
<g mask="url(#mask3_5_1067)">
<path d="M57.8177 100.693L60.6406 103.792L57.8177 106.891L55.0208 109.99V106.297L56.151 105.031L57.2812 103.792L56.151 102.521L55.0208 101.281V97.5886L57.8177 100.693Z" fill="#E5D392"/>
</g>
<path d="M51.2604 87.2917L48.4375 90.3906L51.2604 93.4948L54.0573 96.5938V92.9011L52.9271 91.6302L51.7969 90.3906L52.9271 89.125L54.0573 87.8854V84.1667L51.2604 87.2917Z" fill="#E5D392"/>
<path d="M57.8177 87.2917L60.6406 90.3906L57.8177 93.4948L55.0208 96.5938V92.9011L56.151 91.6302L57.2812 90.3906L56.151 89.125L55.0208 87.8854V84.1667L57.8177 87.2917Z" fill="#E5D392"/>
<path d="M67.1458 97.349L64.3229 94.25L61.6615 91.3073V91.1198L61.5833 91.2031L61.5 91.1198V91.3073L58.8385 94.25L56.0156 97.349L58.8385 100.448L61.5 103.385V103.573L61.5833 103.495L61.6615 103.573V103.385L64.3229 100.448L67.1458 97.349ZM62.6563 98.5886L61.6094 99.7448L60.5625 98.5886L59.4323 97.349L60.5625 96.1094L61.6094 94.9479L62.6563 96.1094L63.7865 97.349L62.6563 98.5886Z" fill="#E5D392"/>
<path d="M52.9791 97.349L50.1562 94.25L47.4948 91.3073V91.1198L47.4166 91.2031L47.3333 91.1198V91.3073L44.6719 94.25L41.8489 97.349L44.6719 100.448L47.3333 103.385V103.573L47.4166 103.495L47.4948 103.573V103.385L50.1562 100.448L52.9791 97.349ZM48.4896 98.5886L47.4427 99.7448L46.3958 98.5886L45.2656 97.349L46.3958 96.1094L47.4427 94.9479L48.4896 96.1094L49.6198 97.349L48.4896 98.5886Z" fill="#E5D392"/>
<path d="M102.063 48.0417L99.2396 44.9427L96.5781 42.0052V41.8177L96.5 41.8958L96.4167 41.8177V42.0052L93.7552 44.9427L90.9375 48.0417L93.7552 51.1458L96.4167 54.0833V54.2708L96.5 54.1875L96.5781 54.2708V54.0833L99.2396 51.1458L102.063 48.0417ZM97.5729 49.2813L96.526 50.4427L95.4792 49.2813L94.349 48.0417L95.4792 46.8021L96.526 45.6458L97.5729 46.8021L98.7031 48.0417L97.5729 49.2813Z" fill="#E5D392"/>
<path d="M95.1562 55.2396L92.3333 52.1406L89.6719 49.2031V49.0156L89.5885 49.0938L89.5104 49.0156V49.2031L86.8489 52.1406L84.026 55.2396L86.8489 58.3385L89.5104 61.2813V61.4688L89.5885 61.3854L89.6719 61.4688V61.2813L92.3333 58.3385L95.1562 55.2396ZM90.6667 56.4792L89.6198 57.6406L88.5677 56.4792L87.4427 55.2396L88.5677 54L89.6198 52.8438L90.6667 54L91.7969 55.2396L90.6667 56.4792Z" fill="#E5D392"/>
<mask id="mask4_5_1067" style="mask-type:luminance" maskUnits="userSpaceOnUse" x="97" y="47" width="12" height="16">
<path d="M97.2656 47.849H109V62.5156H97.2656V47.849Z" fill="white"/>
</mask>
<g mask="url(#mask4_5_1067)">
<path d="M109 55.2396L106.177 52.1406L103.516 49.2031V49.0156L103.432 49.0938L103.354 49.0156V49.2031L100.693 52.1406L97.8698 55.2396L100.693 58.3385L103.354 61.2813V61.4688L103.432 61.3854L103.516 61.4688V61.2813L106.177 58.3385L109 55.2396ZM104.51 56.4792L103.464 57.6406L102.411 56.4792L101.286 55.2396L102.411 54L103.464 52.8438L104.51 54L105.641 55.2396L104.51 56.4792Z" fill="#E5D392"/>
</g>
<path d="M102.063 62.4375L99.2396 59.3386L96.5781 56.4011V56.2136L96.5 56.2917L96.4167 56.2136V56.4011L93.7552 59.3386L90.9375 62.4375L93.7552 65.5365L96.4167 68.4792V68.6667L96.5 68.5834L96.5781 68.6667V68.4792L99.2396 65.5365L102.063 62.4375ZM97.5729 63.7031L96.526 64.8646L95.4792 63.7031L94.349 62.4636L95.4792 61.224L96.526 60.0677L97.5729 61.224L98.7031 62.4636L97.5729 63.7031Z" fill="#E5D392"/>
<path d="M18.0104 48.2344L15.1875 45.1302L12.526 42.1927V42.0052L12.4427 42.0833L12.3646 42.0052V42.1927L9.7031 45.1302L6.88019 48.2344L9.7031 51.3333L12.3646 54.2708V54.4583L12.4427 54.3802L12.526 54.4583V54.2708L15.1875 51.3333L18.0104 48.2344ZM13.5208 49.474L12.4687 50.6302L11.4219 49.474L10.2916 48.2344L11.4219 46.9896L12.4687 45.8333L13.5208 46.9896L14.651 48.2344L13.5208 49.474Z" fill="#E5D392"/>
<mask id="mask5_5_1067" style="mask-type:luminance" maskUnits="userSpaceOnUse" x="0" y="49" width="12" height="14">
<path d="M0 49.1823H11.9323V62.5156H0V49.1823Z" fill="white"/>
</mask>
<g mask="url(#mask5_5_1067)">
<path d="M11.0729 55.4271L8.25 52.3281L5.58854 49.3906V49.2031L5.51042 49.2813L5.42708 49.2031V49.3906L2.76563 52.3281L0 55.4271L2.82292 58.5313L5.48438 61.4688V61.6563L5.5625 61.5781L5.64583 61.6563V61.4688L8.30729 58.5313L11.0729 55.4271ZM6.58333 56.6979L5.53646 57.8542L4.48958 56.6979L3.35938 55.4583L4.48958 54.2188L5.53646 53.0573L6.58333 54.2188L7.71354 55.4583L6.58333 56.6979Z" fill="#E5D392"/>
</g>
<path d="M24.9167 55.4271L22.0938 52.3281L19.4323 49.3906V49.2031L19.3542 49.2813L19.2708 49.2031V49.3906L16.6667 52.3281L13.8438 55.4271L16.6667 58.5313L19.3281 61.4688V61.6563L19.4063 61.5781L19.4896 61.6563V61.4688L22.1458 58.5313L24.9167 55.4271ZM20.4271 56.6979L19.3802 57.8542L18.3333 56.6979L17.2031 55.4583L18.3333 54.2188L19.3802 53.0573L20.4271 54.1875L21.5573 55.4271L20.4271 56.6979Z" fill="#E5D392"/>
<path d="M18.0104 62.6562L15.1875 59.5521L12.5521 56.6146V56.4271L12.4688 56.5104L12.3906 56.4271V56.6146L9.72917 59.5521L6.90625 62.6562L9.72917 65.7552L12.3906 68.6927V68.8802L12.4688 68.8021L12.5521 68.8802V68.6927L15.2135 65.7552L18.0104 62.6562ZM13.5208 63.8958L12.4688 65.0521L11.4219 63.8958L10.2917 62.6562L11.4219 61.4114L12.4688 60.2552L13.5208 61.4114L14.651 62.6562L13.5208 63.8958Z" fill="#E5D392"/>
<path d="M85.9062 87.2136L86.526 81.875L87.1198 76.8334L87.2812 76.6719H87.1198L87.1458 76.5105L86.9844 76.6719L81.9323 76.5625L76.5833 76.4584L75.9635 81.7917L75.3698 86.8334L75.2083 86.9948H75.3698L75.3437 87.1563L75.5052 86.9948L80.5573 87.1042L85.9062 87.2136ZM80.9062 83.9219L78.8906 83.8698L79.1354 81.875L79.375 79.7188L81.526 79.7709L83.5416 79.8282L83.3021 81.823L83.0573 83.9792L80.9062 83.9219Z" fill="#E5D392"/>
<path d="M32.5781 33.9427L33.1979 28.6094L33.7864 23.5677L33.9479 23.4063H33.7864L33.8125 23.2448L33.651 23.4063L28.5989 23.2969L23.25 23.1875L22.6302 28.526L22.0416 33.5677L21.8802 33.7292H22.0416L22.0156 33.8906L22.1771 33.7292L27.2291 33.8385L32.5781 33.9427ZM27.6041 30.6563L25.5885 30.6042L25.8333 28.6094L26.0729 26.4531L28.2239 26.5052L30.2396 26.5573L29.9948 28.5521L29.7552 30.7083L27.6041 30.6563Z" fill="#E5D392"/>
<path d="M86.5781 25.375L81.3125 24.4583L76.3385 23.5938L76.2031 23.4062V23.5677L76.0416 23.5417L76.1771 23.7292L75.8021 28.7708L75.3958 34.1354L80.6406 35.0521L85.6146 35.9115L85.7448 36.099V35.9375L85.9062 35.9688L85.776 35.776L86.151 30.7396L86.5781 25.375ZM83.0312 30.1979L82.8698 32.1927L80.8802 31.8438L78.7604 31.4635L78.9219 29.3073L79.0833 27.3125L81.0677 27.6615L83.1927 28.0417L83.0312 30.1979Z" fill="#E5D392"/>
<path d="M83.7604 92.0105L81.7396 91.9844L81.9844 89.9636L82.2239 87.8334L84.401 87.8594L86.3906 87.9115L86.1771 89.9063L85.9062 92.0625L83.7604 92.0105Z" fill="#E5D392"/>
<path d="M88.599 87.698L86.5781 87.6719L86.8229 85.6771L87.0625 83.5209L89.2135 83.573L91.2292 83.599L90.9896 85.5938L90.7448 87.75L88.599 87.698Z" fill="#E5D392"/>
<path d="M88.599 92.4688L86.5781 92.4167L86.8229 90.4219L87.0625 88.2656L89.2135 88.3177L91.2292 88.3438L90.9896 90.3385L90.7448 92.4948L88.599 92.4688Z" fill="#E5D392"/>
<path d="M16.2083 22.5938L18.3854 22.625L20.375 22.651L20.1615 24.6719L19.9167 26.8021L17.7656 26.776L15.75 26.75L15.9635 24.7552L16.2083 22.5938Z" fill="#E5D392"/>
<path d="M21.125 18.3646L23.276 18.4167L25.2917 18.4427L25.0521 20.4375L24.8073 22.5938L22.6615 22.5417L20.6406 22.5156L20.8594 20.5208L21.125 18.3646Z" fill="#E5D392"/>
<path d="M16.4219 17.7448L18.5729 17.7709L20.5885 17.7969L20.349 19.8177L20.1042 21.9479L17.9531 21.9219L15.9375 21.8959L16.1823 19.9011L16.4219 17.7448Z" fill="#E5D392"/>
<path d="M92.2812 26.5313L92.3073 28.5521L90.2916 28.3646L88.1406 28.2031L88.1146 26.0209L88.0833 24.0261L90.1041 24.1875L92.25 24.375L92.2812 26.5313Z" fill="#E5D392"/>
<path d="M87.8437 21.8438V23.8386L85.8542 23.6719L83.7031 23.4844L83.6771 21.3281L83.651 19.3073L85.6667 19.4948L87.8177 19.6563L87.8437 21.8438Z" fill="#E5D392"/>
<path d="M92.5729 21.6771L92.6041 23.7031L90.5833 23.5417L88.4375 23.349L88.4062 21.1667L88.3802 19.1719L90.3958 19.3333L92.5469 19.5208L92.5729 21.6771Z" fill="#E5D392"/>
<path d="M32.3073 76.349L27.0416 75.4323L22.0677 74.5677L21.9323 74.3802V74.5417L21.7708 74.5157L21.9062 74.7032L21.5052 79.7448L21.0989 85.1094L26.3698 86.0261L31.3437 86.8907L31.4739 87.0782V86.9167L31.6354 86.9427L31.5 86.7552L31.8802 81.7136L32.3073 76.349ZM28.7604 81.1719L28.5989 83.1667L26.6094 82.8177L24.4844 82.4427L24.6458 80.2865L24.8073 78.2917L26.7969 78.6407L28.9219 79.0157L28.7604 81.1719Z" fill="#E5D392"/>
<path d="M20.0781 90.5521L20.0521 88.3958L20.026 86.375L22.0156 86.5365L24.1667 86.7292L24.2187 88.8854L24.2448 90.9063L22.2292 90.7448L20.0781 90.5521Z" fill="#E5D392"/>
<path d="M15.724 85.7813L15.6979 83.625L15.6719 81.6042L17.6615 81.7656L19.8073 81.9531L19.8385 84.1094L19.8646 86.1354L17.875 85.974L15.724 85.7813Z" fill="#E5D392"/>
<path d="M15.2396 90.5L15.2135 88.3438L15.1875 86.3229L17.1771 86.4844L19.3281 86.6719L19.3542 88.8281L19.3802 90.849L17.3906 90.6875L15.2396 90.5Z" fill="#E5D392"/>
</svg>
